<svg xmlns="http://www.w3.org/2000/svg" xmlns:xlink="http://www.w3.org/1999/xlink" viewBox="0 0 232.62 259.91"><defs><style>.cls-1{fill:url(#linear-gradient);}.cls-2{fill:url(#linear-gradient-2);}.cls-3{fill:url(#linear-gradient-3);}.cls-4{fill:url(#linear-gradient-4);}.cls-5{fill:url(#linear-gradient-5);}.cls-6{fill:url(#linear-gradient-6);}</style><linearGradient id="linear-gradient" x1="116.31" y1="61.68" x2="116.31" y2="374.7" gradientUnits="userSpaceOnUse"><stop offset="0" stop-color="#36d9ff"/><stop offset="1" stop-color="#5900db"/></linearGradient><linearGradient id="linear-gradient-2" x1="116.31" y1="40.76" x2="116.31" y2="247.61" gradientUnits="userSpaceOnUse"><stop offset="0" stop-color="#43ffff"/><stop offset="1" stop-color="#3fa2f6"/></linearGradient><linearGradient id="linear-gradient-3" x1="154.26" y1="84.2" x2="149.11" y2="141.5" gradientUnits="userSpaceOnUse"><stop offset="0" stop-color="#ffae00"/><stop offset="0.18" stop-color="#ffab03"/><stop offset="0.33" stop-color="#ffa00c"/><stop offset="0.47" stop-color="#ff8e1a"/><stop offset="0.61" stop-color="#ff752f"/><stop offset="0.74" stop-color="#ff5549"/><stop offset="0.87" stop-color="#ff2e69"/><stop offset="1" stop-color="#ff008f"/></linearGradient><linearGradient id="linear-gradient-4" x1="131.4" y1="97.02" x2="126.26" y2="154.31" xlink:href="#linear-gradient-3"/><linearGradient id="linear-gradient-5" x1="110.39" y1="108.2" x2="105.24" y2="165.5" xlink:href="#linear-gradient-3"/><linearGradient id="linear-gradient-6" x1="83.56" y1="118.9" x2="78.42" y2="176.19" xlink:href="#linear-gradient-3"/></defs><g id="Layer_2" data-name="Layer 2"><g id="OBJECTS"><path class="cls-1" d="M102.25,256.14,14.06,205.22A28.11,28.11,0,0,1,0,180.87V79A28.1,28.1,0,0,1,14.06,54.69L102.25,3.77a28.09,28.09,0,0,1,28.12,0l88.19,50.92A28.1,28.1,0,0,1,232.62,79V180.87a28.11,28.11,0,0,1-14.06,24.35l-88.19,50.92A28.14,28.14,0,0,1,102.25,256.14Zm-56.88-69L102.25,220a28.12,28.12,0,0,0,28.11,0l56.89-32.84a28.12,28.12,0,0,0,14.05-24.35V97.11a28.12,28.12,0,0,0-14.05-24.34L130.36,39.93a28.07,28.07,0,0,0-28.11,0L45.37,72.77a28.09,28.09,0,0,0-14,24.34v65.68A28.1,28.1,0,0,0,45.37,187.14Z"/><path class="cls-2" d="M232.62,79a28.1,28.1,0,0,0-14.06-24.34L130.37,3.77a28.09,28.09,0,0,0-28.12,0L14.06,54.69A28.1,28.1,0,0,0,0,79v6a222.83,222.83,0,0,0,31.32,31.84V97.11a28.09,28.09,0,0,1,14-24.34l56.88-32.84a28.09,28.09,0,0,1,28.12,0l56.88,32.84A28.12,28.12,0,0,1,201.3,97.11v65.68a28,28,0,0,1-1.47,9q15.73.06,32.79-1.2Z"/><path class="cls-3" d="M130.58,81.69V124a4.64,4.64,0,0,0,2.33,4l35.28,20.41a2.94,2.94,0,0,0,4.42-2.54V102.52a5.3,5.3,0,0,0-2.91-4.72L133.77,79.73A2.2,2.2,0,0,0,130.58,81.69Z"/><path class="cls-4" d="M107.73,94.51v42.34a4.66,4.66,0,0,0,2.32,4l35.29,20.41a3,3,0,0,0,4.42-2.55v-43.4a5.3,5.3,0,0,0-2.92-4.73L110.91,92.54A2.2,2.2,0,0,0,107.73,94.51Z"/><path class="cls-5" d="M86.71,105.69V148a4.66,4.66,0,0,0,2.33,4l35.28,20.41a2.94,2.94,0,0,0,4.42-2.55v-43.4a5.28,5.28,0,0,0-2.91-4.72L89.9,103.72A2.21,2.21,0,0,0,86.71,105.69Z"/><path class="cls-6" d="M59.89,116.38v42.35a4.63,4.63,0,0,0,2.32,4L97.5,183.17a3,3,0,0,0,4.42-2.55v-43.4A5.3,5.3,0,0,0,99,132.49L63.08,114.42A2.2,2.2,0,0,0,59.89,116.38Z"/></g></g></svg>